<svg width="1024" height="1024" viewBox="0 0 1024 1024" xmlns="http://www.w3.org/2000/svg"><g fill="#FFFFFF"><path d="M150.0 745.0 L163.1 746.7 L176.3 748.4 L189.4 750.0 L202.5 751.5 L215.6 752.7 L228.8 753.7 L241.9 754.4 L255.0 754.9 L268.1 755.0 L281.3 754.8 L294.4 754.4 L307.5 753.6 L320.7 752.6 L333.8 751.3 L346.9 749.9 L360.0 748.3 L373.2 746.6 L386.3 744.8 L399.4 743.1 L412.5 741.4 L425.7 739.8 L438.8 738.4 L451.9 737.2 L465.1 736.2 L478.2 735.5 L491.3 735.1 L504.4 735.0 L517.6 735.2 L530.7 735.7 L543.8 736.5 L556.9 737.5 L570.1 738.8 L583.2 740.3 L596.3 741.9 L609.5 743.6 L622.6 745.3 L635.7 747.1 L648.8 748.8 L662.0 750.3 L675.1 751.7 L688.2 752.9 L701.3 753.9 L714.5 754.5 L727.6 754.9 L740.7 755.0 L753.9 754.8 L767.0 754.2 L780.1 753.4 L793.2 752.4 L806.4 751.1 L819.5 749.6 L832.6 747.9 L845.7 746.2 L858.9 744.5 L872.0 742.7 A17.0 17.0 0 0 1 872.0 776.7 L858.9 778.5 L845.7 780.2 L832.6 781.9 L819.5 783.6 L806.4 785.1 L793.2 786.4 L780.1 787.4 L767.0 788.2 L753.9 788.8 L740.7 789.0 L727.6 788.9 L714.5 788.5 L701.3 787.9 L688.2 786.9 L675.1 785.7 L662.0 784.3 L648.8 782.8 L635.7 781.1 L622.6 779.3 L609.5 777.6 L596.3 775.9 L583.2 774.3 L570.1 772.8 L556.9 771.5 L543.8 770.5 L530.7 769.7 L517.6 769.2 L504.4 769.0 L491.3 769.1 L478.2 769.5 L465.1 770.2 L451.9 771.2 L438.8 772.4 L425.7 773.8 L412.5 775.4 L399.4 777.1 L386.3 778.8 L373.2 780.6 L360.0 782.3 L346.9 783.9 L333.8 785.3 L320.7 786.6 L307.5 787.6 L294.4 788.4 L281.3 788.8 L268.1 789.0 L255.0 788.9 L241.9 788.4 L228.8 787.7 L215.6 786.7 L202.5 785.5 L189.4 784.0 L176.3 782.4 L163.1 780.7 L150.0 779.0 A17.0 17.0 0 0 1 150.0 745.0 Z"/><path d="M198.0 807.9 L209.7 806.7 L221.3 805.4 L233.0 803.8 L244.7 802.1 L256.4 800.4 L268.0 798.6 L279.7 796.8 L291.4 795.1 L303.1 793.5 L314.7 792.0 L326.4 790.7 L338.1 789.7 L349.7 788.8 L361.4 788.3 L373.1 788.0 L384.8 788.0 L396.4 788.4 L408.1 789.0 L419.8 789.8 L431.5 790.9 L443.1 792.3 L454.8 793.7 L466.5 795.4 L478.1 797.1 L489.8 798.9 L501.5 800.7 L513.2 802.4 L524.8 804.1 L536.5 805.6 L548.2 806.9 L559.9 808.1 L571.5 809.0 L583.2 809.6 L594.9 809.9 L606.5 810.0 L618.2 809.8 L629.9 809.2 L641.6 808.4 L653.2 807.4 L664.9 806.1 L676.6 804.7 L688.3 803.1 L699.9 801.4 L711.6 799.6 L723.3 797.8 L734.9 796.0 L746.6 794.4 L758.3 792.8 L770.0 791.4 L781.6 790.2 L793.3 789.3 L805.0 788.6 L816.7 788.1 L828.3 788.0 L840.0 788.2 A16.0 16.0 0 0 1 840.0 820.2 L828.3 820.0 L816.7 820.1 L805.0 820.6 L793.3 821.3 L781.6 822.2 L770.0 823.4 L758.3 824.8 L746.6 826.4 L734.9 828.0 L723.3 829.8 L711.6 831.6 L699.9 833.4 L688.3 835.1 L676.6 836.7 L664.9 838.1 L653.2 839.4 L641.6 840.4 L629.9 841.2 L618.2 841.8 L606.5 842.0 L594.9 841.9 L583.2 841.6 L571.5 841.0 L559.9 840.1 L548.2 838.9 L536.5 837.6 L524.8 836.1 L513.2 834.4 L501.5 832.7 L489.8 830.9 L478.1 829.1 L466.5 827.4 L454.8 825.7 L443.1 824.3 L431.5 822.9 L419.8 821.8 L408.1 821.0 L396.4 820.4 L384.8 820.0 L373.1 820.0 L361.4 820.3 L349.7 820.8 L338.1 821.7 L326.4 822.7 L314.7 824.0 L303.1 825.5 L291.4 827.1 L279.7 828.8 L268.0 830.6 L256.4 832.4 L244.7 834.1 L233.0 835.8 L221.3 837.4 L209.7 838.7 L198.0 839.9 A16.0 16.0 0 0 1 198.0 807.9 Z"/><path d="M258.0 843.6 L267.8 843.0 L277.6 842.5 L287.5 842.1 L297.3 842.0 L307.1 842.0 L316.9 842.3 L326.7 842.7 L336.5 843.3 L346.4 844.0 L356.2 844.9 L366.0 845.9 L375.8 847.0 L385.6 848.2 L395.5 849.4 L405.3 850.7 L415.1 852.0 L424.9 853.3 L434.7 854.5 L444.5 855.6 L454.4 856.7 L464.2 857.6 L474.0 858.4 L483.8 859.1 L493.6 859.6 L503.5 859.9 L513.3 860.0 L523.1 859.9 L532.9 859.7 L542.7 859.3 L552.5 858.7 L562.4 857.9 L572.2 857.0 L582.0 856.0 L591.8 854.9 L601.6 853.7 L611.5 852.4 L621.3 851.1 L631.1 849.9 L640.9 848.6 L650.7 847.4 L660.5 846.2 L670.4 845.2 L680.2 844.3 L690.0 843.5 L699.8 842.9 L709.6 842.4 L719.5 842.1 L729.3 842.0 L739.1 842.1 L748.9 842.3 L758.7 842.8 L768.5 843.4 L778.4 844.2 L788.2 845.1 L798.0 846.1 A15.0 15.0 0 0 1 798.0 876.1 L788.2 875.1 L778.4 874.2 L768.5 873.4 L758.7 872.8 L748.9 872.3 L739.1 872.1 L729.3 872.0 L719.5 872.1 L709.6 872.4 L699.8 872.9 L690.0 873.5 L680.2 874.3 L670.4 875.2 L660.5 876.2 L650.7 877.4 L640.9 878.6 L631.1 879.9 L621.3 881.1 L611.5 882.4 L601.6 883.7 L591.8 884.9 L582.0 886.0 L572.2 887.0 L562.4 887.9 L552.5 888.7 L542.7 889.3 L532.9 889.7 L523.1 889.9 L513.3 890.0 L503.5 889.9 L493.6 889.6 L483.8 889.1 L474.0 888.4 L464.2 887.6 L454.4 886.7 L444.5 885.6 L434.7 884.5 L424.9 883.3 L415.1 882.0 L405.3 880.7 L395.5 879.4 L385.6 878.2 L375.8 877.0 L366.0 875.9 L356.2 874.9 L346.4 874.0 L336.5 873.3 L326.7 872.7 L316.9 872.3 L307.1 872.0 L297.3 872.0 L287.5 872.1 L277.6 872.5 L267.8 873.0 L258.0 873.6 A15.0 15.0 0 0 1 258.0 843.6 Z"/></g></svg>